<?xml version="1.0" standalone="no"?>
<!DOCTYPE svg PUBLIC "-//W3C//DTD SVG 20010904//EN"
 "http://www.w3.org/TR/2001/REC-SVG-20010904/DTD/svg10.dtd">
<svg version="1.0" xmlns="http://www.w3.org/2000/svg"
 width="300.000000pt" height="300.000000pt" viewBox="0 0 300.000000 300.000000"
 preserveAspectRatio="xMidYMid meet">
<metadata>
Created by potrace 1.11, written by Peter Selinger 2001-2013
</metadata>
<g transform="translate(0.000000,300.000000) scale(0.100000,-0.100000)"
fill="#000000" stroke="none">
<path d="M1648 2943 c-13 -21 -27 -46 -33 -55 -8 -14 -191 -307 -406 -650 -5
-7 -38 -3 -95 12 -207 53 -285 125 -224 203 20 25 21 25 60 10 34 -14 46 -14
83 -3 23 7 71 14 106 15 61 3 80 12 81 41 0 20 -34 41 -105 64 -38 13 -81 28
-95 35 -80 41 -190 16 -266 -60 -61 -60 -84 -119 -80 -202 7 -137 112 -231
315 -281 l73 -18 -43 -28 c-88 -57 -132 -130 -132 -216 2 -134 95 -223 281
-268 39 -9 72 -20 72 -23 0 -3 -18 -14 -39 -24 -44 -20 -116 -86 -137 -127
-35 -68 -15 -156 48 -214 39 -34 172 -104 199 -104 7 0 -6 -18 -30 -41 -104
-100 -85 -198 59 -308 25 -19 49 -38 55 -43 6 -5 0 -17 -16 -31 -35 -30 -76
-95 -83 -133 -11 -52 20 -104 91 -153 l32 -22 -25 -36 c-13 -20 -24 -44 -24
-54 0 -22 40 -70 73 -88 21 -11 24 -18 20 -50 -3 -20 -1 -32 3 -28 5 5 9 12 9
15 1 4 9 49 19 100 19 95 29 107 59 74 23 -25 21 -64 -3 -95 -29 -36 -25 -40
18 -18 76 39 95 87 57 143 l-23 34 35 24 c44 30 83 90 83 129 0 42 -23 90 -69
143 l-41 46 37 23 c52 32 123 105 139 145 26 62 4 129 -59 186 -17 16 -29 29
-26 31 2 2 33 15 69 30 85 36 153 86 173 130 24 49 30 102 17 142 -15 44 -86
114 -150 147 -28 15 -47 28 -43 31 4 3 35 10 68 17 33 7 88 25 123 42 108 51
162 123 164 220 2 90 -41 164 -133 225 l-40 26 73 19 c202 51 306 144 313 277
4 88 -18 146 -79 206 -72 70 -163 97 -237 70 -19 -7 -70 -25 -114 -40 -80 -28
-115 -49 -115 -69 1 -29 20 -39 82 -41 34 -1 80 -8 101 -15 33 -13 44 -12 83
2 44 16 45 15 64 -10 63 -79 -28 -156 -247 -208 -59 -14 -119 -28 -133 -31
-47 -9 -125 -21 -127 -19 -1 1 36 95 81 209 46 114 82 207 81 207 -2 0 -65
-31 -139 -69 -75 -39 -136 -67 -136 -63 0 4 14 45 31 92 17 47 46 128 64 180
18 52 45 125 59 163 14 37 23 67 21 67 -2 0 -14 -17 -27 -37z m-211 -723 c-12
-31 -41 -39 -83 -23 -13 5 -7 11 27 29 61 32 70 31 56 -6z m152 -266 c63 -10
59 -18 -30 -61 l-87 -41 15 36 c8 20 19 48 24 61 7 16 14 21 26 17 9 -4 32 -9
52 -12z m-295 -148 c-24 -71 -46 -131 -48 -133 -9 -10 -125 58 -150 87 -32 39
-33 61 -3 96 19 22 46 33 133 55 60 15 110 26 111 25 1 0 -18 -59 -43 -130z
m583 79 c41 -17 67 -57 59 -90 -8 -31 -47 -70 -94 -94 -45 -23 -150 -56 -156
-50 -3 3 16 62 42 133 l47 127 35 -6 c19 -4 49 -13 67 -20z m-317 -154 c0 -6
-38 -107 -45 -118 -1 -2 -38 4 -84 14 -45 9 -79 18 -76 21 6 6 188 90 198 91
4 1 7 -3 7 -8z m-155 -418 c-26 -71 -51 -132 -55 -137 -20 -21 -170 80 -170
114 0 14 42 54 84 80 39 24 178 79 185 74 2 -2 -18 -61 -44 -131z m254 95 c13
-5 20 -12 15 -17 -17 -14 -114 -81 -118 -81 -3 0 5 27 17 60 23 64 21 63 86
38z m129 -68 c65 -47 56 -79 -39 -138 -38 -23 -65 -29 -54 -12 4 6 9 23 12 38
3 15 6 32 7 37 2 6 6 31 11 58 4 26 11 47 15 47 4 0 26 -14 48 -30z m-262
-215 c-5 -14 -11 -14 -56 2 -10 3 -3 10 20 18 35 12 46 6 36 -20z m-12 -233
c-5 -77 -11 -151 -13 -160 -2 -5 -149 99 -162 114 -18 22 -3 57 36 82 42 27
127 62 137 56 4 -3 4 -44 2 -92z m169 -11 c3 -13 -6 -30 -26 -51 -16 -17 -31
-29 -33 -27 -2 2 2 29 8 60 10 47 14 54 29 47 9 -5 19 -18 22 -29z m-189 -318
c-2 -10 -5 -49 -7 -87 -2 -39 -8 -71 -13 -73 -19 -6 -57 46 -57 77 0 23 10 39
39 65 21 19 40 35 41 35 0 0 -1 -8 -3 -17z m102 -97 c-6 -31 -56 -92 -56 -68
0 13 19 111 26 131 10 29 36 -28 30 -63z m-126 -262 c0 -44 -13 -53 -22 -16
-5 18 7 62 17 62 3 0 5 -21 5 -46z"/>
</g>
</svg>
